<svg width="570" height="367" viewBox="0 0 570 367" fill="none" xmlns="http://www.w3.org/2000/svg">
<ellipse cx="509.5" cy="187" rx="12.5" ry="28" fill="#FD604A"/>
<ellipse cx="509.5" cy="243" rx="12.5" ry="28" fill="#FD604A"/>
<rect x="478" y="208" width="70" height="15" fill="#3D3D3D"/>
<path d="M162 69C162 57.9543 170.954 49 182 49H312C323.046 49 332 57.9543 332 69V111H162V69Z" fill="#3D3D3D"/>
<ellipse cx="398.232" cy="98.4642" rx="21.5" ry="28" transform="rotate(56.0895 398.232 98.4642)" fill="#FD604A"/>
<ellipse cx="387.232" cy="332.778" rx="21.5" ry="28" transform="rotate(-56.09 387.232 332.778)" fill="#FD604A"/>
<g filter="url(#filter0_d_212_180)">
<ellipse cx="247" cy="215.5" rx="243" ry="139.5" fill="#F29B34"/>
</g>
<circle cx="79" cy="215" r="30" fill="#FCFCFC" stroke="#3D3D3D" stroke-width="10"/>
<circle cx="189" cy="215" r="30" fill="#FCFCFC" stroke="#3D3D3D" stroke-width="10"/>
<g clip-path="url(#clip0_212_180)">
<rect x="154" y="180" width="70" height="70" rx="35" fill="white"/>
<g filter="url(#filter1_d_212_180)">
<path d="M165.719 210.916C150.972 217.783 159.434 232.17 159.434 232.17C159.434 232.17 158.305 223.378 172.518 219.853C186.731 216.327 194.47 216.403 198.337 215.522C202.205 214.64 203.435 213.652 203.435 213.652C203.435 213.652 200.552 214.019 200.376 212.396C200.292 211.624 199.593 209.949 198.882 208.405C197.92 206.313 196.048 204.802 193.833 204.17C192.782 203.87 191.693 203.731 190.604 203.833C186.875 204.186 177.195 205.572 165.719 210.916Z" fill="url(#paint0_linear_212_180)" stroke="#181818" stroke-width="2"/>
<path d="M170.653 223.911C162.55 226.5 159.482 232.075 159.482 232.075C159.482 232.075 157.417 225.301 168.744 220.992C180.072 216.684 195.307 216.403 198.854 215.562C202.402 214.721 205.404 212.853 205.404 212.853C205.404 212.853 202.141 221.094 195.707 220.692C189.273 220.29 178.756 221.323 170.653 223.911Z" fill="url(#paint1_linear_212_180)" stroke="#181818" stroke-width="2"/>
<path d="M206.473 205.71C202.126 201.858 192.666 203.717 192.666 203.717C194.888 204.307 196.43 204.683 197.501 205.702L200.028 211.219L200.5 212.964C201.496 213.507 202.126 213.755 203.312 213.774C204.288 213.516 204.711 213.17 205.503 212.663C204.384 216.719 200.033 219.987 197.954 220.649C198.681 221.073 202.801 218.952 203.812 217.196C205.386 214.984 205.939 213.789 206.339 211.743C206.225 210.856 206.072 210.392 205.57 209.647L206.801 209.349C207.196 210.071 207.368 210.496 207.447 211.337C207.257 214.224 206.907 215.86 205.665 218.818L200.689 227.999C200.384 228.561 199.885 228.993 199.284 229.213L199.117 229.275C198.773 229.401 198.47 229.619 198.243 229.906C197.574 230.748 197.184 231.777 197.126 232.85L197.097 233.391C197.097 233.391 198.902 236.028 199.028 237.516C199.155 239.004 190.078 243.961 188.462 240.701C186.847 237.441 187.404 232.934 187.311 232.991C187.311 232.991 184.095 238.621 189.407 244.42C194.72 250.22 199.356 251.434 199.356 251.434L203.595 252.183C204.5 252.343 205.432 252.157 206.206 251.66L207.468 250.852C208.781 250.011 209.814 248.799 210.438 247.37L214.828 248.828L217.985 249.435C217.985 249.435 217.538 248.218 215.389 246.244C213.453 244.466 216.499 234.198 217.122 232.181C217.191 231.955 217.185 231.717 217.104 231.495C217.073 231.411 217.075 231.318 217.11 231.235L217.491 230.338C217.553 230.191 217.514 230.021 217.394 229.915C217.29 229.825 217.245 229.683 217.278 229.549L217.364 229.2C217.441 228.883 217.312 228.551 217.041 228.369L216.951 228.309C216.742 228.169 216.638 227.915 216.69 227.668C216.782 227.231 216.539 226.8 216.093 226.776C215.411 226.739 214.309 226.872 212.956 227.727C210.643 229.19 210.646 241.31 210.646 241.31C210.646 241.31 203.354 232.17 203.693 229.667C204.033 227.165 209.064 217.801 209.331 216.016C209.598 214.23 210.819 209.563 206.473 205.71Z" fill="#181818"/>
<path d="M206.801 209.348L205.471 209.606C205.706 209.896 205.875 210.16 206 210.447C206.335 211.213 206.176 212.088 205.912 212.881C205.464 214.224 204.809 215.491 203.925 216.596C203.497 217.131 203.142 217.561 202.776 218.011C202.581 218.251 202.361 218.469 202.117 218.659C201.495 219.143 200.815 219.549 200.093 219.867L199.087 220.309C197.497 220.781 197.465 220.87 193.218 220.761C192.055 222.977 191.19 224.315 189.096 226.89C187.737 229.623 187.169 231.099 187.288 234.073C189.325 234.423 190.513 234.336 192.71 233.772C195.169 232.78 196.305 232.196 197.411 231.051L198.1 230.165C198.469 229.692 198.963 229.331 199.527 229.124C199.973 228.96 200.353 228.652 200.604 228.248C204.301 222.302 206.391 218.479 207.203 213.561C207.438 212.136 207.45 210.638 206.801 209.348Z" fill="#FCFCFC"/>
<path d="M199.028 237.516C198.926 236.684 198.722 236.057 198.365 235.381C197.657 234.037 197.208 232.557 197.411 231.051C192.966 234.151 190.778 234.632 187.288 234.074C187.162 237.033 187.426 238.585 188.487 240.769C189.904 244.003 199.217 239.056 199.028 237.516Z" fill="url(#paint2_linear_212_180)"/>
<path d="M215.001 248.841L210.438 247.369C209.861 248.634 208.941 249.712 207.783 250.48L204.904 252.391C204.904 252.391 206.515 252.746 207.468 252.755C209.658 252.775 211.36 251.711 212.886 251.074C214.413 250.437 215.001 248.841 215.001 248.841Z" fill="#FD604A"/>
<ellipse rx="1.88858" ry="1.72856" transform="matrix(-0.938836 0.344364 0.344364 0.938836 202.438 209.108)" fill="#FCFCFC"/>
<path d="M200.738 209.501C200.999 210.211 201.509 210.65 202.162 210.411C202.815 210.171 203.133 209.402 202.873 208.693C202.612 207.983 202.102 207.543 201.449 207.783C200.796 208.022 200.478 208.791 200.738 209.501Z" fill="#181818"/>
<ellipse rx="0.472145" ry="0.288093" transform="matrix(-0.938836 0.344364 0.344364 0.938836 202.931 209.08)" fill="#FCFCFC"/>
</g>
</g>
<rect x="159" y="185" width="60" height="60" rx="30" stroke="#3D3D3D" stroke-width="10"/>
<circle cx="299" cy="215" r="30" fill="#FCFCFC" stroke="#3D3D3D" stroke-width="10"/>
<circle cx="550" cy="215" r="20" fill="#FD604A"/>
<rect x="239" y="19" width="15" height="30" fill="#D9D9D9"/>
<rect x="222" y="19" width="15" height="50" transform="rotate(-90 222 19)" fill="#3D3D3D"/>
<rect x="211" y="23" width="23" height="11" transform="rotate(-90 211 23)" fill="#57AEFF"/>
<defs>
<filter id="filter0_d_212_180" x="0" y="76" width="494" height="287" filterUnits="userSpaceOnUse" color-interpolation-filters="sRGB">
<feFlood flood-opacity="0" result="BackgroundImageFix"/>
<feColorMatrix in="SourceAlpha" type="matrix" values="0 0 0 0 0 0 0 0 0 0 0 0 0 0 0 0 0 0 127 0" result="hardAlpha"/>
<feOffset dy="4"/>
<feGaussianBlur stdDeviation="2"/>
<feComposite in2="hardAlpha" operator="out"/>
<feColorMatrix type="matrix" values="0 0 0 0 0 0 0 0 0 0 0 0 0 0 0 0 0 0 0.25 0"/>
<feBlend mode="normal" in2="BackgroundImageFix" result="effect1_dropShadow_212_180"/>
<feBlend mode="normal" in="SourceGraphic" in2="effect1_dropShadow_212_180" result="shape"/>
</filter>
<filter id="filter1_d_212_180" x="152.018" y="202.8" width="69.9668" height="60.4692" filterUnits="userSpaceOnUse" color-interpolation-filters="sRGB">
<feFlood flood-opacity="0" result="BackgroundImageFix"/>
<feColorMatrix in="SourceAlpha" type="matrix" values="0 0 0 0 0 0 0 0 0 0 0 0 0 0 0 0 0 0 127 0" result="hardAlpha"/>
<feOffset dy="4"/>
<feGaussianBlur stdDeviation="2"/>
<feComposite in2="hardAlpha" operator="out"/>
<feColorMatrix type="matrix" values="0 0 0 0 0 0 0 0 0 0 0 0 0 0 0 0 0 0 0.25 0"/>
<feBlend mode="normal" in2="BackgroundImageFix" result="effect1_dropShadow_212_180"/>
<feBlend mode="normal" in="SourceGraphic" in2="effect1_dropShadow_212_180" result="shape"/>
</filter>
<linearGradient id="paint0_linear_212_180" x1="175.487" y1="207.012" x2="181.717" y2="223.996" gradientUnits="userSpaceOnUse">
<stop stop-color="#F29B34"/>
<stop offset="1" stop-color="#FD604A"/>
</linearGradient>
<linearGradient id="paint1_linear_212_180" x1="180.396" y1="216.882" x2="183.672" y2="225.814" gradientUnits="userSpaceOnUse">
<stop stop-color="#FD604A"/>
<stop offset="1" stop-color="#F29B34"/>
</linearGradient>
<linearGradient id="paint2_linear_212_180" x1="191.671" y1="232.466" x2="194.744" y2="240.845" gradientUnits="userSpaceOnUse">
<stop stop-color="#FDE04A"/>
<stop offset="1" stop-color="#FD604A"/>
</linearGradient>
<clipPath id="clip0_212_180">
<rect x="154" y="180" width="70" height="70" rx="35" fill="white"/>
</clipPath>
</defs>
</svg>
