<svg width="357" height="400" viewBox="0 0 357 400" fill="none" xmlns="http://www.w3.org/2000/svg">
<path d="M270 3.08788C373 12.5879 354 126.588 354 126.588C354 126.588 341.5 66.5879 249 77.5879C156.5 88.5879 110.5 107.588 85.5 111.088C60.5 114.588 51 111.088 51 111.088C51 111.088 69 106.588 66.5 95.5879C64.7748 87.9972 66.6211 64.9301 67.9313 51.3608C68.5672 44.7742 71.9068 38.7732 77.0834 34.6511L91.9416 22.8196C94.6297 20.6791 97.6329 18.9871 100.912 17.9616C118.635 12.4196 182.868 -4.94861 270 3.08788Z" fill="url(#paint0_linear_232_222)" stroke="#181818" stroke-width="2"/>
<path d="M269 99.5879C323 97.0879 353.5 126.088 353.5 126.088C353.5 126.088 350.5 78.0879 273.5 77.0879C196.5 76.0879 105.5 109.588 82.5 112.588C59.5 115.588 37.5 110.588 37.5 110.588C37.5 110.588 74 157.588 112 138.588C150 119.588 215 102.088 269 99.5879Z" fill="url(#paint1_linear_232_222)" stroke="#181818" stroke-width="2"/>
<path d="M15.5 66.5879C33 31.0879 93.5 20.5879 93.5 20.5879C81.5388 29.7509 73.1587 35.8885 69 45.0879L66 87.0879L67 99.5879C62.2443 105.505 59.0336 108.628 52 111.588C45.6123 112.243 42.3304 111 36.5 109.588C52.0503 133.346 85.1541 144.246 99 143.588C95.5953 148.09 66.3777 144.117 56.5 135.088C42.2741 124.436 36.3627 117.968 29.5 105.588C28.234 99.5337 28.1333 96.142 29.5 90.0879L21.5 91.0879C20.7289 96.7426 20.6273 99.9191 22 105.588C29.451 123.956 35.1166 133.777 49 150.088L102.048 201.189C102.979 202.086 104.223 202.588 105.517 202.588H112.986C113.973 202.588 114.938 202.88 115.76 203.428L123.104 208.324C125.315 209.798 127.021 211.914 127.992 214.387L132 224.588C132 224.588 127 246.088 129.5 256.088C132 266.088 196.995 276.699 199.5 251.588C202.005 226.477 188.818 198.434 189.5 198.588C189.5 198.588 221 227.588 202 278.088C183 328.588 158 347.588 158 347.588L127.935 366.677C127.018 367.259 125.904 367.443 124.848 367.187L97.8144 360.634C95.007 359.953 92.4789 358.421 90.5767 356.247L83 347.588L60 367.588L42.5 379.088C42.5 379.088 42.5 370.088 51 352.088C58.979 335.191 14.5285 271.152 9.04939 263.365C8.68997 262.854 8.5 262.252 8.5 261.628V259.458C8.5 259.219 8.41461 258.988 8.25926 258.807L3.36422 253.096C2.84054 252.485 2.73401 251.62 3.09388 250.9L3.50245 250.083C3.81183 249.464 3.77948 248.73 3.41691 248.14L0.671607 243.679C0.262276 243.014 0.27759 242.172 0.710823 241.522L3.31435 237.616C3.73456 236.986 3.76259 236.172 3.38674 235.515L1.13685 231.577C0.465644 230.403 0.679503 228.937 1.81529 228.202C5.04857 226.11 12.649 222.682 25 225.588C42 229.588 68.5 308.588 68.5 308.588C68.5 308.588 92 231.588 84.5 216.088C77 200.588 26.5 151.588 21 140.588C15.5 129.588 -2 102.088 15.5 66.5879Z" fill="#181818"/>
<path d="M21.5005 91.0879L30 89.5879C28.9026 93.0777 28.5053 95.8984 28.6867 99.1362C28.908 103.089 30.7101 106.746 33.0438 109.943L36.6513 114.887C40.8554 120.648 45.9585 125.715 51.878 129.693C56.9645 133.111 60.7446 135.505 64.7195 138.094C66.2365 139.082 67.8642 139.89 69.5729 140.488L70.2609 140.729C74.7334 142.295 79.3957 143.253 84.123 143.579L91.5 144.088C102.014 143.359 102.402 143.448 127.5 132.588C139.288 144.252 147.374 151.311 165.5 163.088C179.585 177.657 186.206 185.92 192 205.588C180.617 212.734 173.34 215.009 159 216.588C142.157 216.001 134.106 214.908 125 210.088L115.53 203.631C114.533 202.951 113.356 202.588 112.15 202.588H104.97C104.021 202.588 103.092 202.241 102.369 201.626C61.621 166.965 39.6405 145.925 23.0936 108.596C22.3591 106.939 21.8172 105.189 21.5591 103.395C20.9618 99.2431 20.9694 96.123 21.5005 91.0879Z" fill="#FCFCFC"/>
<path d="M130.923 222.356L125 210.088C158.299 219.664 172.407 217.572 192 205.588C199.231 224.572 201.05 235.318 199.5 252.088C198.124 276.555 131.746 266.575 129.5 256.088C127.385 246.211 128.5 239.651 131.436 227.003C131.798 225.442 131.62 223.8 130.923 222.356Z" fill="url(#paint2_linear_232_222)"/>
<path d="M59 368.088L83 347.588L87.0926 352.111C90.6206 356.011 95.2105 358.795 100.299 360.122L127 367.088C127 367.088 118.165 373.252 112.5 375.588C99.4827 380.956 87 378.088 76.5 377.588C66 377.088 59 368.088 59 368.088Z" fill="#FD604A"/>
<circle cx="47" cy="79.0879" r="12" fill="#FCFCFC"/>
<path d="M58 77.5879C58 82.8346 55.9183 86.9212 51.5 86.9212C47.0817 86.9212 43.5 82.6679 43.5 77.4212C43.5 72.1745 45.5817 68.0879 50 68.0879C54.4183 68.0879 58 72.3412 58 77.5879Z" fill="#181818"/>
<ellipse cx="44" cy="80.0879" rx="3" ry="2" fill="#FCFCFC"/>
<path d="M75 392.088L76.5 377.588H79V392.588L84 393.588L88 396.588L80.5 394.088L84.5 398.088L76.5 395.088L65.5 391.088L75 392.088Z" fill="#002A7A"/>
<path d="M89.5 393.588L91 378.688L93.5 378.796V394.088L98.5 395.088L102.5 398.088L95 395.588L99 399.588L91 396.588L80 392.588L89.5 393.588Z" fill="#002A7A"/>
<defs>
<linearGradient id="paint0_linear_232_222" x1="203.19" y1="1" x2="203.19" y2="126.588" gradientUnits="userSpaceOnUse">
<stop stop-color="#F29B34"/>
<stop offset="1" stop-color="#FD604A"/>
</linearGradient>
<linearGradient id="paint1_linear_232_222" x1="195.5" y1="77.0659" x2="195.5" y2="143.111" gradientUnits="userSpaceOnUse">
<stop stop-color="#FD604A"/>
<stop offset="1" stop-color="#F29B34"/>
</linearGradient>
<linearGradient id="paint2_linear_232_222" x1="162.337" y1="205.588" x2="162.337" y2="267.544" gradientUnits="userSpaceOnUse">
<stop stop-color="#FDE04A"/>
<stop offset="1" stop-color="#FD604A"/>
</linearGradient>
</defs>
</svg>
