<svg width="1920" height="350" viewBox="0 0 1920 350" fill="none" xmlns="http://www.w3.org/2000/svg">
<path fill-rule="evenodd" clip-rule="evenodd" d="M0 233.333L64 243.056C128 252.778 256 272.222 384 213.889C512 155.556 640 19.4444 768 19.4444C896 19.4444 1024 155.556 1152 175C1280 194.444 1408 97.2222 1536 48.6111C1664 0 1792 0 1856 0H1920V350H1856C1792 350 1664 350 1536 350C1408 350 1280 350 1152 350C1024 350 896 350 768 350C640 350 512 350 384 350C256 350 128 350 64 350H0V233.333Z" fill="#78D7E4" fill-opacity="0.8"/>
</svg>
