<svg width="1920" height="350" viewBox="0 0 1920 350" fill="none" xmlns="http://www.w3.org/2000/svg">
<path fill-rule="evenodd" clip-rule="evenodd" d="M0 0H64C128 0 256 0 384 48.5549C512 97.1098 640 194.22 768 214.451C896 233.671 1024 175 1152 155.78C1280 136.561 1408 155.78 1536 155.78C1664 155.78 1792 136.561 1856 126.445L1920 117.341V350H1856C1792 350 1664 350 1536 350C1408 350 1280 350 1152 350C1024 350 896 350 768 350C640 350 512 350 384 350C256 350 128 350 64 350H0V0Z" fill="#78D7E4"/>
</svg>
