<svg width="1529" height="279" viewBox="0 0 1529 279" fill="none" xmlns="http://www.w3.org/2000/svg">
<path fill-rule="evenodd" clip-rule="evenodd" d="M1529 30.2665L1486.95 42.111C1443.63 53.9554 1359.54 77.6443 1274.17 89.4888C1188.8 101.333 1104.7 101.333 1019.33 77.6443C933.964 53.9554 849.869 6.57765 764.5 0.655424C679.131 -5.2668 595.036 30.2665 509.667 53.9554C424.297 77.6443 340.202 89.4888 254.833 107.255C169.464 125.022 85.3691 148.711 42.0475 160.555L-4.3869e-05 172.4V279H42.0475C85.3691 279 169.464 279 254.833 279C340.202 279 424.297 279 509.667 279C595.036 279 679.131 279 764.5 279C849.869 279 933.964 279 1019.33 279C1104.7 279 1188.8 279 1274.17 279C1359.54 279 1443.63 279 1486.95 279H1529V30.2665Z" fill="#78D7E4" fill-opacity="0.6"/>
</svg>
